<mxfile host="65bd71144e">
    <diagram id="l090gs16vu1OvFRpwJrQ" name="Page-1">
        <mxGraphModel dx="676" dy="614" grid="1" gridSize="10" guides="1" tooltips="1" connect="1" arrows="1" fold="1" page="1" pageScale="1" pageWidth="827" pageHeight="1169" math="0" shadow="0">
            <root>
                <mxCell id="0"/>
                <mxCell id="1" parent="0"/>
                <mxCell id="2" value="" style="rounded=0;whiteSpace=wrap;html=1;" vertex="1" parent="1">
                    <mxGeometry x="90" y="60" width="120" height="60" as="geometry"/>
                </mxCell>
                <mxCell id="3" value="" style="rounded=0;whiteSpace=wrap;html=1;" vertex="1" parent="1">
                    <mxGeometry x="220" y="60" width="120" height="60" as="geometry"/>
                </mxCell>
                <mxCell id="4" value="" style="rounded=0;whiteSpace=wrap;html=1;" vertex="1" parent="1">
                    <mxGeometry x="353.5" y="60" width="120" height="60" as="geometry"/>
                </mxCell>
                <mxCell id="5" value="&lt;span style=&quot;font-size: 13px;&quot;&gt;Sten&lt;/span&gt;" style="text;strokeColor=none;fillColor=none;html=1;fontSize=24;fontStyle=1;verticalAlign=middle;align=center;" vertex="1" parent="1">
                    <mxGeometry x="100" y="70" width="100" height="40" as="geometry"/>
                </mxCell>
                <mxCell id="6" value="&lt;span style=&quot;font-size: 13px;&quot;&gt;Saks&lt;/span&gt;" style="text;strokeColor=none;fillColor=none;html=1;fontSize=24;fontStyle=1;verticalAlign=middle;align=center;" vertex="1" parent="1">
                    <mxGeometry x="230" y="70" width="100" height="40" as="geometry"/>
                </mxCell>
                <mxCell id="7" value="&lt;span style=&quot;font-size: 13px;&quot;&gt;Papir&lt;/span&gt;" style="text;strokeColor=none;fillColor=none;html=1;fontSize=24;fontStyle=1;verticalAlign=middle;align=center;" vertex="1" parent="1">
                    <mxGeometry x="364" y="70" width="100" height="40" as="geometry"/>
                </mxCell>
                <mxCell id="8" value="" style="rounded=0;whiteSpace=wrap;html=1;fontSize=13;" vertex="1" parent="1">
                    <mxGeometry x="220" y="200" width="120" height="60" as="geometry"/>
                </mxCell>
                <mxCell id="10" value="&lt;span style=&quot;font-size: 13px;&quot;&gt;computer vælger&lt;br&gt;random&lt;/span&gt;" style="text;strokeColor=none;fillColor=none;html=1;fontSize=24;fontStyle=1;verticalAlign=middle;align=center;" vertex="1" parent="1">
                    <mxGeometry x="230" y="210" width="100" height="40" as="geometry"/>
                </mxCell>
                <mxCell id="11" value="" style="rounded=0;whiteSpace=wrap;html=1;fontSize=13;" vertex="1" parent="1">
                    <mxGeometry x="220" y="280" width="120" height="60" as="geometry"/>
                </mxCell>
                <mxCell id="12" value="&lt;span style=&quot;font-size: 13px;&quot;&gt;hvem vinder&lt;/span&gt;" style="text;strokeColor=none;fillColor=none;html=1;fontSize=24;fontStyle=1;verticalAlign=middle;align=center;" vertex="1" parent="1">
                    <mxGeometry x="230" y="290" width="100" height="40" as="geometry"/>
                </mxCell>
                <mxCell id="13" value="" style="rounded=0;whiteSpace=wrap;html=1;fontSize=13;" vertex="1" parent="1">
                    <mxGeometry x="220" y="360" width="120" height="60" as="geometry"/>
                </mxCell>
                <mxCell id="14" value="&lt;span style=&quot;font-size: 13px;&quot;&gt;hånd animation&lt;/span&gt;" style="text;strokeColor=none;fillColor=none;html=1;fontSize=24;fontStyle=1;verticalAlign=middle;align=center;" vertex="1" parent="1">
                    <mxGeometry x="230" y="370" width="100" height="40" as="geometry"/>
                </mxCell>
                <mxCell id="15" value="" style="rounded=0;whiteSpace=wrap;html=1;fontSize=13;" vertex="1" parent="1">
                    <mxGeometry x="220" y="430" width="120" height="60" as="geometry"/>
                </mxCell>
                <mxCell id="16" value="&lt;span style=&quot;font-size: 13px;&quot;&gt;correcthand signs &lt;br&gt;vises&lt;/span&gt;" style="text;strokeColor=none;fillColor=none;html=1;fontSize=24;fontStyle=1;verticalAlign=middle;align=center;" vertex="1" parent="1">
                    <mxGeometry x="230" y="440" width="100" height="40" as="geometry"/>
                </mxCell>
                <mxCell id="17" value="" style="rounded=0;whiteSpace=wrap;html=1;fontSize=13;" vertex="1" parent="1">
                    <mxGeometry x="220" y="500" width="120" height="60" as="geometry"/>
                </mxCell>
                <mxCell id="18" value="&lt;span style=&quot;font-size: 13px;&quot;&gt;correct winnerscreen&lt;br&gt;&amp;nbsp;vises&lt;/span&gt;" style="text;strokeColor=none;fillColor=none;html=1;fontSize=24;fontStyle=1;verticalAlign=middle;align=center;" vertex="1" parent="1">
                    <mxGeometry x="230" y="510" width="100" height="40" as="geometry"/>
                </mxCell>
                <mxCell id="19" value="userChoice&amp;nbsp;" style="text;strokeColor=none;fillColor=none;html=1;fontSize=13;fontStyle=1;verticalAlign=middle;align=center;" vertex="1" parent="1">
                    <mxGeometry x="520" y="70" width="100" height="40" as="geometry"/>
                </mxCell>
                <mxCell id="20" value="outcome" style="text;strokeColor=none;fillColor=none;html=1;fontSize=13;fontStyle=1;verticalAlign=middle;align=center;" vertex="1" parent="1">
                    <mxGeometry x="420" y="290" width="100" height="40" as="geometry"/>
                </mxCell>
                <mxCell id="21" value="computerChoice" style="text;strokeColor=none;fillColor=none;html=1;fontSize=13;fontStyle=1;verticalAlign=middle;align=center;" vertex="1" parent="1">
                    <mxGeometry x="430" y="210" width="100" height="40" as="geometry"/>
                </mxCell>
            </root>
        </mxGraphModel>
    </diagram>
</mxfile>